<?xml version="1.0" encoding="UTF-8" standalone="no"?>
<!DOCTYPE svg PUBLIC "-//W3C//DTD SVG 1.1//EN" "http://www.w3.org/Graphics/SVG/1.1/DTD/svg11.dtd">
<svg width="100%" height="100%" viewBox="0 0 13 13" version="1.1" xmlns="http://www.w3.org/2000/svg" xmlns:xlink="http://www.w3.org/1999/xlink" xml:space="preserve" xmlns:serif="http://www.serif.com/" style="fill-rule:evenodd;clip-rule:evenodd;stroke-miterlimit:10;">
    <g transform="matrix(0.390011,0,0,0.808109,-1.2672,-15.2584)">
        <rect x="15.276" y="24.932" width="20.34" height="9.03" style="fill:rgb(245,222,170);"/>
    </g>
    <g transform="matrix(3.46945e-17,0.629836,-0.438732,3.1225e-17,23.4815,-9.54214)">
        <rect x="15.276" y="24.932" width="20.34" height="9.03" style="fill:rgb(245,222,170);"/>
    </g>
    <g transform="matrix(0.629836,3.87186e-18,4.36045e-18,0.438732,-9.59203,-2.2896)">
        <rect x="15.276" y="24.932" width="20.34" height="9.03" style="fill:rgb(245,222,170);"/>
    </g>
    <g transform="matrix(1,0,0,1,-102.966,-4.91813)">
        <g>
            <g transform="matrix(1,0,0,1,-200.538,-9.5617)">
                <rect x="312" y="15" width="4" height="4" style="fill:none;stroke:black;stroke-width:1px;"/>
            </g>
            <g transform="matrix(1,0,0,1,-200.538,-9.5617)">
                <rect x="308" y="19" width="4" height="4" style="fill:none;stroke:black;stroke-width:1px;"/>
            </g>
            <g transform="matrix(1,0,0,1,-200.538,-9.5617)">
                <rect x="312" y="19" width="4" height="4" style="fill:none;stroke:black;stroke-width:1px;"/>
            </g>
            <g transform="matrix(1,0,0,1,-200.538,-9.5617)">
                <rect x="304" y="23" width="4" height="4" style="fill:none;stroke:black;stroke-width:1px;"/>
            </g>
            <g transform="matrix(1,0,0,1,-200.538,-9.5617)">
                <rect x="308" y="23" width="4" height="4" style="fill:none;stroke:black;stroke-width:1px;"/>
            </g>
            <g transform="matrix(1,0,0,1,-200.538,-9.5617)">
                <rect x="312" y="23" width="4" height="4" style="fill:none;stroke:black;stroke-width:1px;"/>
            </g>
        </g>
    </g>
    <g transform="matrix(1,0,0,1,-19.6245,-24.0314)">
        <rect x="15.276" y="24.932" width="20.34" height="9.03" style="fill:none;"/>
    </g>
</svg>
