<?xml version="1.0" encoding="UTF-8" standalone="no"?>
<!DOCTYPE svg PUBLIC "-//W3C//DTD SVG 1.1//EN" "http://www.w3.org/Graphics/SVG/1.1/DTD/svg11.dtd">
<svg width="100%" height="100%" viewBox="0 0 512 512" version="1.1" xmlns="http://www.w3.org/2000/svg" xmlns:xlink="http://www.w3.org/1999/xlink" xml:space="preserve" xmlns:serif="http://www.serif.com/" style="fill-rule:evenodd;clip-rule:evenodd;stroke-linejoin:round;stroke-miterlimit:2;">
    <g>
        <g>
            <path d="M341.902,486.943C382.775,486.943 422.84,475.554 457.602,454.054L482.232,438.82L10.001,438.82L34.631,454.054C69.393,475.554 109.458,486.943 150.331,486.943L341.902,486.943Z" style="fill:rgb(125,188,249);fill-rule:nonzero;"/>
            <g transform="matrix(1.05112,0,0,1.05112,-32.6637,-18.8988)">
                <circle cx="448.081" cy="312.437" r="50.907" style="fill:rgb(125,188,249);"/>
            </g>
        </g>
        <g>
            <path d="M407.861,307.148C407.861,360.818 382.351,408.528 342.791,438.818L141.451,438.818C101.891,408.528 76.381,360.818 76.381,307.148C76.381,272.958 94.311,214.808 94.311,214.808L389.941,214.808C389.941,214.808 407.861,272.958 407.861,307.148Z" style="fill:rgb(125,188,249);fill-rule:nonzero;"/>
        </g>
        <g>
            <path d="M230.518,370.248L159.261,370.248L159.261,300.277L195.927,270.023L230.518,300.277L230.518,370.248Z" style="fill:rgb(255,216,138);fill-rule:nonzero;"/>
        </g>
        <g>
            <path d="M482.232,428.821L368.876,428.821C380.979,416.2 391.238,401.802 399.087,386.259C401.725,381.035 404.07,375.719 406.155,370.328C416.917,376.778 429.261,380.249 442.05,380.249C480.62,380.249 512,348.869 512,310.299C512,271.729 480.62,240.349 442.05,240.349C430.531,240.349 419.29,243.192 409.269,248.511C404.675,228.778 399.879,213.109 399.496,211.864C398.203,207.671 394.328,204.809 389.939,204.809L205.927,204.809L205.927,202.633C205.927,197.111 201.449,192.633 195.927,192.633C190.405,192.633 185.927,197.111 185.927,202.633L185.927,204.809L94.311,204.809C89.923,204.809 86.048,207.669 84.755,211.863C84.004,214.296 66.38,271.858 66.38,307.149C66.38,334.973 72.696,361.589 85.153,386.259C93.002,401.802 103.262,416.2 115.364,428.821L10.001,428.821C5.531,428.821 1.605,431.787 0.382,436.087C-0.84,440.387 0.94,444.975 4.741,447.326L29.371,462.559C65.739,485.053 107.566,496.943 150.331,496.943L198.661,496.943C204.183,496.943 208.661,492.465 208.661,486.943C208.661,481.421 204.183,476.943 198.661,476.943L150.331,476.943C113.414,476.943 77.262,467.238 45.364,448.821L446.869,448.821C414.971,467.238 378.818,476.943 341.902,476.943L286.592,476.943C281.07,476.943 276.592,481.421 276.592,486.943C276.592,492.465 281.07,496.943 286.592,496.943L341.902,496.943C384.666,496.943 426.492,485.053 462.861,462.559L487.492,447.326C491.294,444.974 493.073,440.387 491.851,436.087C490.629,431.786 486.702,428.821 482.232,428.821ZM442.051,260.348C469.594,260.348 492.001,282.755 492.001,310.298C492.001,337.841 469.594,360.248 442.051,360.248C431.314,360.248 421.007,356.838 412.472,350.55C419.377,323.389 418.688,296.528 413.627,269.223C421.935,263.468 431.84,260.348 442.051,260.348ZM101.8,224.808L185.927,224.808L185.927,265.31L152.897,292.565C150.594,294.464 149.261,297.294 149.261,300.278L149.261,370.249C149.261,375.771 153.739,380.249 159.261,380.249L230.518,380.249C236.04,380.249 240.518,375.771 240.518,370.249L240.518,300.278C240.518,297.393 239.273,294.65 237.102,292.751L205.927,265.484L205.927,224.809L382.452,224.809C388.048,244.452 392.904,264.406 395.936,284.618C399.399,307.709 396.547,329.284 391.386,351.868C382.461,381.889 364.569,408.66 339.346,428.819L144.896,428.819C107.665,399.065 86.38,354.911 86.38,307.149C86.381,281.669 97.171,241.057 101.8,224.808ZM195.738,283.143L220.517,304.817L220.517,360.249L169.26,360.249L169.26,304.992L195.738,283.143Z" style="fill-rule:nonzero;"/>
            <path d="M274.89,108.632C274.96,108.695 282.01,115.269 286.185,125.417C291.575,138.52 289.543,151.45 280.145,163.848C276.809,168.249 277.672,174.522 282.074,177.859C286.419,181.152 292.794,180.27 296.085,175.93C313.5,152.953 310.372,131.641 304.681,117.808C299.222,104.537 290.339,95.718 288.613,94.082C278.701,83.894 273.811,73.337 274.078,62.698C274.51,45.518 288.096,32.683 288.361,32.435C292.423,28.72 292.718,22.417 289.017,18.337C285.306,14.248 278.982,13.94 274.891,17.65C274.074,18.392 254.862,36.112 254.091,61.942C253.603,78.33 260.456,93.898 274.462,108.216C274.6,108.361 274.744,108.498 274.89,108.632Z" style="fill-rule:nonzero;"/>
            <path d="M208.433,111.226C210.954,111.226 213.479,110.278 215.424,108.374C219.372,104.513 219.443,98.182 215.58,94.233C205.57,83.999 200.631,73.389 200.898,62.698C201.329,45.542 214.877,32.719 215.18,32.436C219.242,28.721 219.539,22.417 215.837,18.337C212.126,14.248 205.802,13.94 201.711,17.65C200.894,18.392 181.682,36.112 180.911,61.942C180.423,78.33 187.276,93.898 201.282,108.216C203.243,110.221 205.837,111.226 208.433,111.226Z" style="fill-rule:nonzero;"/>
            <path d="M251.35,482.07C249.281,477.028 243.324,474.586 238.3,476.661C233.256,478.744 230.802,484.683 232.89,489.721C234.975,494.753 240.906,497.21 245.94,495.131C250.969,493.053 253.442,487.094 251.35,482.07Z" style="fill-rule:nonzero;"/>
        </g>
    </g>
</svg>
