<?xml version="1.0" encoding="UTF-8" standalone="no"?>
<!DOCTYPE svg PUBLIC "-//W3C//DTD SVG 1.1//EN" "http://www.w3.org/Graphics/SVG/1.1/DTD/svg11.dtd">
<svg width="100%" height="100%" viewBox="0 0 500 500" version="1.1" xmlns="http://www.w3.org/2000/svg" xmlns:xlink="http://www.w3.org/1999/xlink" xml:space="preserve" xmlns:serif="http://www.serif.com/" style="fill-rule:evenodd;clip-rule:evenodd;stroke-linejoin:round;stroke-miterlimit:2;">
    <g transform="matrix(1,0,0,1,0,15)">
        <g>
            <g transform="matrix(0.839467,0,0,0.839467,48.6,-4)">
                <circle cx="7.624" cy="14.295" r="4.765" style="fill:rgb(208,208,208);"/>
            </g>
            <g transform="matrix(0.839467,0,0,0.839467,126.6,-4)">
                <circle cx="7.624" cy="14.295" r="4.765" style="fill:rgb(208,208,208);"/>
            </g>
            <g transform="matrix(0.839467,0,0,0.839467,204.6,-4)">
                <circle cx="7.624" cy="14.295" r="4.765" style="fill:rgb(208,208,208);"/>
            </g>
            <g transform="matrix(0.839467,0,0,0.839467,282.6,-4)">
                <circle cx="7.624" cy="14.295" r="4.765" style="fill:rgb(208,208,208);"/>
            </g>
            <g transform="matrix(0.839467,0,0,0.839467,360.6,-4)">
                <circle cx="7.624" cy="14.295" r="4.765" style="fill:rgb(208,208,208);"/>
            </g>
            <g transform="matrix(0.839467,0,0,0.839467,438.6,-4)">
                <circle cx="7.624" cy="14.295" r="4.765" style="fill:rgb(208,208,208);"/>
            </g>
        </g>
        <g transform="matrix(1,0,0,1,0,3.33333)">
            <g transform="matrix(0.839467,0,0,0.839467,48.6,56)">
                <circle cx="7.624" cy="14.295" r="4.765" style="fill:rgb(208,208,208);"/>
            </g>
            <g transform="matrix(0.839467,0,0,0.839467,126.6,56)">
                <circle cx="7.624" cy="14.295" r="4.765" style="fill:rgb(208,208,208);"/>
            </g>
            <g transform="matrix(0.839467,0,0,0.839467,204.6,56)">
                <circle cx="7.624" cy="14.295" r="4.765" style="fill:rgb(208,208,208);"/>
            </g>
            <g transform="matrix(0.839467,0,0,0.839467,282.6,56)">
                <circle cx="7.624" cy="14.295" r="4.765" style="fill:rgb(208,208,208);"/>
            </g>
            <g transform="matrix(0.839467,0,0,0.839467,360.6,56)">
                <circle cx="7.624" cy="14.295" r="4.765" style="fill:rgb(208,208,208);"/>
            </g>
            <g transform="matrix(0.839467,0,0,0.839467,438.6,56)">
                <circle cx="7.624" cy="14.295" r="4.765" style="fill:rgb(208,208,208);"/>
            </g>
        </g>
        <g transform="matrix(1,0,0,1,0,-3.33333)">
            <g transform="matrix(0.839467,0,0,0.839467,48.6,126)">
                <circle cx="7.624" cy="14.295" r="4.765" style="fill:rgb(208,208,208);"/>
            </g>
            <g transform="matrix(0.839467,0,0,0.839467,126.6,126)">
                <circle cx="7.624" cy="14.295" r="4.765" style="fill:rgb(208,208,208);"/>
            </g>
            <g transform="matrix(0.839467,0,0,0.839467,204.6,126)">
                <circle cx="7.624" cy="14.295" r="4.765" style="fill:rgb(208,208,208);"/>
            </g>
            <g transform="matrix(0.839467,0,0,0.839467,282.6,126)">
                <circle cx="7.624" cy="14.295" r="4.765" style="fill:rgb(208,208,208);"/>
            </g>
            <g transform="matrix(0.839467,0,0,0.839467,360.6,126)">
                <circle cx="7.624" cy="14.295" r="4.765" style="fill:rgb(208,208,208);"/>
            </g>
            <g transform="matrix(0.839467,0,0,0.839467,438.6,126)">
                <circle cx="7.624" cy="14.295" r="4.765" style="fill:rgb(208,208,208);"/>
            </g>
        </g>
        <g>
            <g transform="matrix(0.839467,0,0,0.839467,48.6,186)">
                <circle cx="7.624" cy="14.295" r="4.765" style="fill:rgb(208,208,208);"/>
            </g>
            <g transform="matrix(0.839467,0,0,0.839467,126.6,186)">
                <circle cx="7.624" cy="14.295" r="4.765" style="fill:rgb(208,208,208);"/>
            </g>
            <g transform="matrix(0.839467,0,0,0.839467,204.6,186)">
                <circle cx="7.624" cy="14.295" r="4.765" style="fill:rgb(208,208,208);"/>
            </g>
            <g transform="matrix(0.839467,0,0,0.839467,282.6,186)">
                <circle cx="7.624" cy="14.295" r="4.765" style="fill:rgb(208,208,208);"/>
            </g>
            <g transform="matrix(0.839467,0,0,0.839467,360.6,186)">
                <circle cx="7.624" cy="14.295" r="4.765" style="fill:rgb(208,208,208);"/>
            </g>
            <g transform="matrix(0.839467,0,0,0.839467,438.6,186)">
                <circle cx="7.624" cy="14.295" r="4.765" style="fill:rgb(208,208,208);"/>
            </g>
        </g>
    </g>
    <g transform="matrix(1,0,0,1,0,275)">
        <g>
            <g transform="matrix(0.839467,0,0,0.839467,48.6,-4)">
                <circle cx="7.624" cy="14.295" r="4.765" style="fill:rgb(208,208,208);"/>
            </g>
            <g transform="matrix(0.839467,0,0,0.839467,126.6,-4)">
                <circle cx="7.624" cy="14.295" r="4.765" style="fill:rgb(208,208,208);"/>
            </g>
            <g transform="matrix(0.839467,0,0,0.839467,204.6,-4)">
                <circle cx="7.624" cy="14.295" r="4.765" style="fill:rgb(208,208,208);"/>
            </g>
            <g transform="matrix(0.839467,0,0,0.839467,282.6,-4)">
                <circle cx="7.624" cy="14.295" r="4.765" style="fill:rgb(208,208,208);"/>
            </g>
            <g transform="matrix(0.839467,0,0,0.839467,360.6,-4)">
                <circle cx="7.624" cy="14.295" r="4.765" style="fill:rgb(208,208,208);"/>
            </g>
            <g transform="matrix(0.839467,0,0,0.839467,438.6,-4)">
                <circle cx="7.624" cy="14.295" r="4.765" style="fill:rgb(208,208,208);"/>
            </g>
        </g>
        <g transform="matrix(1,0,0,1,0,3.33333)">
            <g transform="matrix(0.839467,0,0,0.839467,48.6,56)">
                <circle cx="7.624" cy="14.295" r="4.765" style="fill:rgb(208,208,208);"/>
            </g>
            <g transform="matrix(0.839467,0,0,0.839467,126.6,56)">
                <circle cx="7.624" cy="14.295" r="4.765" style="fill:rgb(208,208,208);"/>
            </g>
            <g transform="matrix(0.839467,0,0,0.839467,204.6,56)">
                <circle cx="7.624" cy="14.295" r="4.765" style="fill:rgb(208,208,208);"/>
            </g>
            <g transform="matrix(0.839467,0,0,0.839467,282.6,56)">
                <circle cx="7.624" cy="14.295" r="4.765" style="fill:rgb(208,208,208);"/>
            </g>
            <g transform="matrix(0.839467,0,0,0.839467,360.6,56)">
                <circle cx="7.624" cy="14.295" r="4.765" style="fill:rgb(208,208,208);"/>
            </g>
            <g transform="matrix(0.839467,0,0,0.839467,438.6,56)">
                <circle cx="7.624" cy="14.295" r="4.765" style="fill:rgb(208,208,208);"/>
            </g>
        </g>
        <g transform="matrix(1,0,0,1,0,-3.33333)">
            <g transform="matrix(0.839467,0,0,0.839467,48.6,126)">
                <circle cx="7.624" cy="14.295" r="4.765" style="fill:rgb(208,208,208);"/>
            </g>
            <g transform="matrix(0.839467,0,0,0.839467,126.6,126)">
                <circle cx="7.624" cy="14.295" r="4.765" style="fill:rgb(208,208,208);"/>
            </g>
            <g transform="matrix(0.839467,0,0,0.839467,204.6,126)">
                <circle cx="7.624" cy="14.295" r="4.765" style="fill:rgb(208,208,208);"/>
            </g>
            <g transform="matrix(0.839467,0,0,0.839467,282.6,126)">
                <circle cx="7.624" cy="14.295" r="4.765" style="fill:rgb(208,208,208);"/>
            </g>
            <g transform="matrix(0.839467,0,0,0.839467,360.6,126)">
                <circle cx="7.624" cy="14.295" r="4.765" style="fill:rgb(208,208,208);"/>
            </g>
            <g transform="matrix(0.839467,0,0,0.839467,438.6,126)">
                <circle cx="7.624" cy="14.295" r="4.765" style="fill:rgb(208,208,208);"/>
            </g>
        </g>
        <g>
            <g transform="matrix(0.839467,0,0,0.839467,48.6,186)">
                <circle cx="7.624" cy="14.295" r="4.765" style="fill:rgb(208,208,208);"/>
            </g>
            <g transform="matrix(0.839467,0,0,0.839467,126.6,186)">
                <circle cx="7.624" cy="14.295" r="4.765" style="fill:rgb(208,208,208);"/>
            </g>
            <g transform="matrix(0.839467,0,0,0.839467,204.6,186)">
                <circle cx="7.624" cy="14.295" r="4.765" style="fill:rgb(208,208,208);"/>
            </g>
            <g transform="matrix(0.839467,0,0,0.839467,282.6,186)">
                <circle cx="7.624" cy="14.295" r="4.765" style="fill:rgb(208,208,208);"/>
            </g>
            <g transform="matrix(0.839467,0,0,0.839467,360.6,186)">
                <circle cx="7.624" cy="14.295" r="4.765" style="fill:rgb(208,208,208);"/>
            </g>
            <g transform="matrix(0.839467,0,0,0.839467,438.6,186)">
                <circle cx="7.624" cy="14.295" r="4.765" style="fill:rgb(208,208,208);"/>
            </g>
        </g>
    </g>
</svg>
